<?xml version="1.0" encoding="UTF-8" standalone="no"?>
<!-- Created with Inkscape (http://www.inkscape.org/) -->

<svg
   xmlns:dc="http://purl.org/dc/elements/1.1/"
   xmlns:cc="http://creativecommons.org/ns#"
   xmlns:rdf="http://www.w3.org/1999/02/22-rdf-syntax-ns#"
   xmlns:svg="http://www.w3.org/2000/svg"
   xmlns="http://www.w3.org/2000/svg"
   xmlns:sodipodi="http://sodipodi.sourceforge.net/DTD/sodipodi-0.dtd"
   xmlns:inkscape="http://www.inkscape.org/namespaces/inkscape"
   width="210mm"
   height="297mm"
   viewBox="0 0 210 297"
   version="1.1"
   id="svg8"
   inkscape:version="0.92.1 r15371"
   sodipodi:docname="momentum.svg">
  <defs
     id="defs2" />
  <sodipodi:namedview
     id="base"
     pagecolor="#ffffff"
     bordercolor="#666666"
     borderopacity="1.0"
     inkscape:pageopacity="0.0"
     inkscape:pageshadow="2"
     inkscape:zoom="2.7239484"
     inkscape:cx="396.85039"
     inkscape:cy="825.58203"
     inkscape:document-units="mm"
     inkscape:current-layer="layer1"
     showgrid="false"
     inkscape:window-width="2880"
     inkscape:window-height="1729"
     inkscape:window-x="0"
     inkscape:window-y="34"
     inkscape:window-maximized="1" />
  <metadata
     id="metadata5">
    <rdf:RDF>
      <cc:Work
         rdf:about="">
        <dc:format>image/svg+xml</dc:format>
        <dc:type
           rdf:resource="http://purl.org/dc/dcmitype/StillImage" />
        <dc:title></dc:title>
      </cc:Work>
    </rdf:RDF>
  </metadata>
  <g
     inkscape:label="Layer 1"
     inkscape:groupmode="layer"
     id="layer1">
    <path
       style="fill:none;fill-rule:evenodd;stroke:#000000;stroke-width:0.07000434;stroke-linecap:round;stroke-linejoin:round;stroke-miterlimit:4;stroke-dasharray:none;stroke-dashoffset:0;stroke-opacity:1"
       d="m 56.46617,112.93234 c 0,0 -3.033803,-23.297194 -3.794374,-35.165764 -1.089472,-17.001009 1.135879,-36.516765 5.401951,-43.806496 2.489792,-4.254479 6.048975,-8.934357 10.85115,-10.04736 7.493843,-1.736852 15.828252,2.183015 22.104196,6.631259 11.247337,7.971851 18.795207,20.816923 24.334667,33.441004 5.32717,12.140311 11.23299,37.694307 11.23299,37.694307"
       id="path8421"
       inkscape:connector-curvature="0"
       sodipodi:nodetypes="cssaasc" />
    <path
       sodipodi:nodetypes="caaaaac"
       inkscape:connector-curvature="0"
       id="path8423"
       d="m 62.995189,110.0407 c 0,0 -4.68677,-26.762779 -4.229106,-40.243323 0.385232,-11.347055 0.423652,-23.58137 5.849004,-33.554815 1.804309,-3.316868 4.633382,-6.843521 8.311743,-7.696057 5.740119,-1.330391 12.09308,1.716327 16.931329,5.079399 8.66176,6.020833 14.273391,15.856149 19.086171,25.24307 6.94426,13.544184 13.5001,43.620596 13.5001,43.620596"
       style="fill:none;fill-rule:evenodd;stroke:#000000;stroke-width:0.07000434;stroke-linecap:round;stroke-linejoin:round;stroke-miterlimit:4;stroke-dasharray:none;stroke-dashoffset:0;stroke-opacity:1" />
    <path
       style="fill:none;fill-rule:evenodd;stroke:#000000;stroke-width:0.07000434;stroke-linecap:round;stroke-linejoin:round;stroke-miterlimit:4;stroke-dasharray:none;stroke-dashoffset:0;stroke-opacity:1"
       d="m 68.335338,106.68429 c 0,0 -5.110337,-26.140869 -4.766703,-39.348435 0.236503,-9.089993 0.339302,-18.886289 4.684448,-26.873987 1.445065,-2.656469 3.71086,-5.480953 6.656847,-6.163746 4.597242,-1.065506 9.685307,1.3746 13.560244,4.068073 6.937174,4.822065 11.411873,12.709235 15.286046,20.21709 6.97631,13.519565 13.72136,43.528755 13.72136,43.528755"
       id="path8425"
       inkscape:connector-curvature="0"
       sodipodi:nodetypes="caaaaac" />
  </g>
</svg>
