<?xml version="1.0" encoding="UTF-8" standalone="no"?>
<!-- Created with Inkscape (http://www.inkscape.org/) -->

<svg
   xmlns:dc="http://purl.org/dc/elements/1.1/"
   xmlns:cc="http://creativecommons.org/ns#"
   xmlns:rdf="http://www.w3.org/1999/02/22-rdf-syntax-ns#"
   xmlns:svg="http://www.w3.org/2000/svg"
   xmlns="http://www.w3.org/2000/svg"
   xmlns:sodipodi="http://sodipodi.sourceforge.net/DTD/sodipodi-0.dtd"
   xmlns:inkscape="http://www.inkscape.org/namespaces/inkscape"
   width="72.319443mm"
   height="46.919445mm"
   viewBox="0 0 256.24999 166.25"
   id="svg5184"
   version="1.1"
   inkscape:version="0.91 r13725"
   sodipodi:docname="oldtreenotation.svg">
  <defs
     id="defs5186" />
  <sodipodi:namedview
     id="base"
     pagecolor="#ffffff"
     bordercolor="#666666"
     borderopacity="1.0"
     inkscape:pageopacity="0.0"
     inkscape:pageshadow="2"
     inkscape:zoom="5.0965854"
     inkscape:cx="128.125"
     inkscape:cy="83.125"
     inkscape:document-units="px"
     inkscape:current-layer="layer1"
     showgrid="false"
     showguides="true"
     inkscape:guide-bbox="true"
     inkscape:snap-global="true"
     inkscape:snap-nodes="true"
     inkscape:snap-to-guides="true"
     inkscape:snap-midpoints="false"
     inkscape:window-width="1440"
     inkscape:window-height="1747"
     inkscape:window-x="0"
     inkscape:window-y="27"
     inkscape:window-maximized="0"
     fit-margin-top="0"
     fit-margin-left="0"
     fit-margin-right="0"
     fit-margin-bottom="0">
    <sodipodi:guide
       position="167.36982,157.45954"
       orientation="0,1"
       id="guide5310" />
    <sodipodi:guide
       position="88.010224,58.456477"
       orientation="0,1"
       id="guide5312" />
    <sodipodi:guide
       position="108.05377,264.72127"
       orientation="1,0"
       id="guide5314" />
    <sodipodi:guide
       position="89.754974,108.11203"
       orientation="0,1"
       id="guide5324" />
    <sodipodi:guide
       position="8.0623278,201.96647"
       orientation="1,0"
       id="guide5326" />
    <sodipodi:guide
       position="208.28706,243.58527"
       orientation="1,0"
       id="guide5328" />
    <sodipodi:guide
       position="58.074795,258.62397"
       orientation="1,0"
       id="guide5393" />
    <sodipodi:guide
       position="158.27459,239.91307"
       orientation="1,0"
       id="guide5395" />
    <sodipodi:guide
       position="108.05377,8.0370479"
       orientation="0,1"
       id="guide5534" />
    <sodipodi:guide
       position="32.767036,121.65008"
       orientation="1,0"
       id="guide5544" />
    <sodipodi:guide
       position="82.015694,108.11203"
       orientation="1,0"
       id="guide5546" />
  </sodipodi:namedview>
  <metadata
     id="metadata5189">
    <rdf:RDF>
      <cc:Work
         rdf:about="">
        <dc:format>image/svg+xml</dc:format>
        <dc:type
           rdf:resource="http://purl.org/dc/dcmitype/StillImage" />
        <dc:title></dc:title>
      </cc:Work>
    </rdf:RDF>
  </metadata>
  <g
     inkscape:label="Layer 1"
     inkscape:groupmode="layer"
     id="layer1"
     transform="translate(-242,-44.1122)">
    <g
       transform="matrix(9.84252e-5,0,0,-9.84252e-5,231.63369,148.98595)"
       id="g5316" />
    <g
       id="g5320"
       transform="matrix(9.84252e-5,0,0,-9.84252e-5,235.63369,148.98595)" />
    <g
       transform="matrix(-9.84252e-5,0,0,-9.84252e-5,467.74705,148.98595)"
       id="g5332">
      <path
         d="m 1195462.5,472126.01 2522.2,499495.35"
         style="fill:none;stroke:#a6a6a6;stroke-width:12700;stroke-linecap:butt;stroke-linejoin:round;stroke-miterlimit:10;stroke-dasharray:none;stroke-opacity:1"
         id="path5336"
         inkscape:connector-curvature="0"
         sodipodi:nodetypes="cc" />
    </g>
    <g
       id="g5381"
       transform="matrix(-9.84252e-5,0,0,-9.84252e-5,467.74705,148.98595)">
      <path
         sodipodi:nodetypes="cc"
         inkscape:connector-curvature="0"
         id="path5383"
         style="fill:none;stroke:#a6a6a6;stroke-width:12700;stroke-linecap:butt;stroke-linejoin:round;stroke-miterlimit:10;stroke-dasharray:none;stroke-opacity:1"
         d="m 1195462.5,472126.01 2522.2,499495.35" />
    </g>
    <g
       id="g5399">
      <g
         id="g5385"
         transform="matrix(-9.84252e-5,0,0,-9.84252e-5,467.74705,198.28647)">
        <path
           sodipodi:nodetypes="cc"
           inkscape:connector-curvature="0"
           id="path5387"
           style="fill:none;stroke:#a6a6a6;stroke-width:12700;stroke-linecap:butt;stroke-linejoin:round;stroke-miterlimit:10;stroke-dasharray:none;stroke-opacity:1"
           d="M 1600542.5,470349.34 1197984.7,971621.36" />
        <path
           d="m 791584.7,470349.34 402557.8,501272.02"
           style="fill:none;stroke:#a6a6a6;stroke-width:12700;stroke-linecap:butt;stroke-linejoin:round;stroke-miterlimit:10;stroke-dasharray:none;stroke-opacity:1"
           id="path5397"
           inkscape:connector-curvature="0"
           sodipodi:nodetypes="cc" />
      </g>
      <g
         transform="matrix(1.25,0,0,-1.25,214.5,416.6122)"
         id="g5357">
        <path
           inkscape:connector-curvature="0"
           id="path5359"
           style="fill:#31a7fe;fill-opacity:1;fill-rule:evenodd;stroke:none"
           d="m 102.5,251.5 c 0,3.3137 2.6863,6 6,6 3.3137,0 6,-2.6863 6,-6 0,-3.3137 -2.6863,-6 -6,-6 -3.3137,0 -6,2.6863 -6,6 z" />
        <g
           transform="matrix(7.874016e-5,0,0,-7.874016e-5,102.5,257.5)"
           id="g5361">
          <path
             inkscape:connector-curvature="0"
             id="path5363"
             style="fill:none;stroke:#217abb;stroke-width:12700;stroke-linecap:butt;stroke-linejoin:round;stroke-miterlimit:10;stroke-dasharray:none;stroke-opacity:1"
             d="M 0,76200 C 0,34115.94 34115.94,0 76200,0 c 42084.1,0 76200,34115.94 76200,76200 0,42084.1 -34115.9,76200 -76200,76200 C 34115.94,152400 0,118284.1 0,76200 Z" />
        </g>
      </g>
    </g>
    <g
       id="g5410"
       transform="matrix(-9.84252e-5,0,0,-9.84252e-5,568.27165,198.46134)">
      <path
         sodipodi:nodetypes="cc"
         inkscape:connector-curvature="0"
         id="path5412"
         style="fill:none;stroke:#a6a6a6;stroke-width:12700;stroke-linecap:butt;stroke-linejoin:round;stroke-miterlimit:10;stroke-dasharray:none;stroke-opacity:1"
         d="M 1600542.5,470349.34 1197984.7,971621.36" />
      <path
         d="m 791584.7,470349.34 402557.8,501272.02"
         style="fill:none;stroke:#a6a6a6;stroke-width:12700;stroke-linecap:butt;stroke-linejoin:round;stroke-miterlimit:10;stroke-dasharray:none;stroke-opacity:1"
         id="path5414"
         inkscape:connector-curvature="0"
         sodipodi:nodetypes="cc" />
    </g>
    <path
       style="color:#000000;clip-rule:nonzero;display:inline;overflow:visible;visibility:visible;opacity:1;isolation:auto;mix-blend-mode:normal;color-interpolation:sRGB;color-interpolation-filters:linearRGB;solid-color:#000000;solid-opacity:1;fill:none;fill-opacity:1;fill-rule:nonzero;stroke:#a6a6a6;stroke-width:1.25;stroke-linecap:butt;stroke-linejoin:round;stroke-miterlimit:10;stroke-dasharray:none;stroke-dashoffset:0;stroke-opacity:1;color-rendering:auto;image-rendering:auto;shape-rendering:auto;text-rendering:auto;enable-background:accumulate"
       d="M 350.05378,52.902656 250.06233,102.25017"
       id="path5440"
       inkscape:connector-curvature="0" />
    <path
       style="color:#000000;clip-rule:nonzero;display:inline;overflow:visible;visibility:visible;opacity:1;isolation:auto;mix-blend-mode:normal;color-interpolation:sRGB;color-interpolation-filters:linearRGB;solid-color:#000000;solid-opacity:1;fill:none;fill-opacity:1;fill-rule:nonzero;stroke:#a6a6a6;stroke-width:1.25;stroke-linecap:butt;stroke-linejoin:round;stroke-miterlimit:10;stroke-dasharray:none;stroke-dashoffset:0;stroke-opacity:1;color-rendering:auto;image-rendering:auto;shape-rendering:auto;text-rendering:auto;enable-background:accumulate"
       d="M 450.28707,102.25017 350.05378,52.902656"
       id="path5456"
       inkscape:connector-curvature="0" />
    <g
       id="g5373"
       transform="matrix(1.25,0,0,-1.25,114.5,417.13681)">
      <path
         d="m 102.5,251.5 c 0,3.3137 2.6863,6 6,6 3.3137,0 6,-2.6863 6,-6 0,-3.3137 -2.6863,-6 -6,-6 -3.3137,0 -6,2.6863 -6,6 z"
         style="fill:#31a7fe;fill-opacity:1;fill-rule:evenodd;stroke:none"
         id="path5375"
         inkscape:connector-curvature="0" />
      <g
         id="g5377"
         transform="matrix(7.874016e-5,0,0,-7.874016e-5,102.5,257.5)">
        <path
           d="M 0,76200 C 0,34115.94 34115.94,0 76200,0 c 42084.1,0 76200,34115.94 76200,76200 0,42084.1 -34115.9,76200 -76200,76200 C 34115.94,152400 0,118284.1 0,76200 Z"
           style="fill:none;stroke:#217abb;stroke-width:12700;stroke-linecap:butt;stroke-linejoin:round;stroke-miterlimit:10;stroke-dasharray:none;stroke-opacity:1"
           id="path5379"
           inkscape:connector-curvature="0" />
      </g>
    </g>
    <g
       transform="matrix(1.25,0,0,-1.25,214.5,366.6122)"
       id="g5210">
      <path
         inkscape:connector-curvature="0"
         id="path856"
         style="fill:#31a7fe;fill-opacity:1;fill-rule:evenodd;stroke:none"
         d="m 102.5,251.5 c 0,3.3137 2.6863,6 6,6 3.3137,0 6,-2.6863 6,-6 0,-3.3137 -2.6863,-6 -6,-6 -3.3137,0 -6,2.6863 -6,6 z" />
      <g
         transform="matrix(7.874016e-5,0,0,-7.874016e-5,102.5,257.5)"
         id="g858">
        <path
           inkscape:connector-curvature="0"
           id="path860"
           style="fill:none;stroke:#217abb;stroke-width:12700;stroke-linecap:butt;stroke-linejoin:round;stroke-miterlimit:10;stroke-dasharray:none;stroke-opacity:1"
           d="M 0,76200 C 0,34115.94 34115.94,0 76200,0 c 42084.1,0 76200,34115.94 76200,76200 0,42084.1 -34115.9,76200 -76200,76200 C 34115.94,152400 0,118284.1 0,76200 Z" />
      </g>
    </g>
    <g
       transform="matrix(1.25,0,0,-1.25,315.0246,416.78707)"
       id="g5416">
      <path
         inkscape:connector-curvature="0"
         id="path5418"
         style="fill:#31a7fe;fill-opacity:1;fill-rule:evenodd;stroke:none"
         d="m 102.5,251.5 c 0,3.3137 2.6863,6 6,6 3.3137,0 6,-2.6863 6,-6 0,-3.3137 -2.6863,-6 -6,-6 -3.3137,0 -6,2.6863 -6,6 z" />
      <g
         transform="matrix(7.874016e-5,0,0,-7.874016e-5,102.5,257.5)"
         id="g5420">
        <path
           inkscape:connector-curvature="0"
           id="path5422"
           style="fill:none;stroke:#217abb;stroke-width:12700;stroke-linecap:butt;stroke-linejoin:round;stroke-miterlimit:10;stroke-dasharray:none;stroke-opacity:1"
           d="M 0,76200 C 0,34115.94 34115.94,0 76200,0 c 42084.1,0 76200,34115.94 76200,76200 0,42084.1 -34115.9,76200 -76200,76200 C 34115.94,152400 0,118284.1 0,76200 Z" />
      </g>
    </g>
    <g
       id="g5471"
       transform="translate(-40,50)">
      <g
         transform="matrix(-9.84252e-5,0,0,-9.84252e-5,467.74705,198.28647)"
         id="g5473">
        <path
           d="M 1600542.5,470349.34 1197984.7,971621.36"
           style="fill:none;stroke:#a6a6a6;stroke-width:12700;stroke-linecap:butt;stroke-linejoin:round;stroke-miterlimit:10;stroke-dasharray:none;stroke-opacity:1"
           id="path5475"
           inkscape:connector-curvature="0"
           sodipodi:nodetypes="cc" />
        <path
           sodipodi:nodetypes="cc"
           inkscape:connector-curvature="0"
           id="path5477"
           style="fill:none;stroke:#a6a6a6;stroke-width:12700;stroke-linecap:butt;stroke-linejoin:round;stroke-miterlimit:10;stroke-dasharray:none;stroke-opacity:1"
           d="m 791584.7,470349.34 402557.8,501272.02" />
      </g>
      <g
         id="g5479"
         transform="matrix(1.25,0,0,-1.25,214.5,416.6122)">
        <path
           d="m 102.5,251.5 c 0,3.3137 2.6863,6 6,6 3.3137,0 6,-2.6863 6,-6 0,-3.3137 -2.6863,-6 -6,-6 -3.3137,0 -6,2.6863 -6,6 z"
           style="fill:#31a7fe;fill-opacity:1;fill-rule:evenodd;stroke:none"
           id="path5481"
           inkscape:connector-curvature="0" />
        <g
           id="g5483"
           transform="matrix(7.874016e-5,0,0,-7.874016e-5,102.5,257.5)">
          <path
             d="M 0,76200 C 0,34115.94 34115.94,0 76200,0 c 42084.1,0 76200,34115.94 76200,76200 0,42084.1 -34115.9,76200 -76200,76200 C 34115.94,152400 0,118284.1 0,76200 Z"
             style="fill:none;stroke:#217abb;stroke-width:12700;stroke-linecap:butt;stroke-linejoin:round;stroke-miterlimit:10;stroke-dasharray:none;stroke-opacity:1"
             id="path5485"
             inkscape:connector-curvature="0" />
        </g>
      </g>
    </g>
    <g
       id="g5495"
       transform="matrix(1.25,0,0,-1.25,252.5,466.6122)">
      <path
         d="m 102.5,251.5 c 0,3.3137 2.6863,6 6,6 3.3137,0 6,-2.6863 6,-6 0,-3.3137 -2.6863,-6 -6,-6 -3.3137,0 -6,2.6863 -6,6 z"
         style="fill:#31a7fe;fill-opacity:1;fill-rule:evenodd;stroke:none"
         id="path5497"
         inkscape:connector-curvature="0" />
      <g
         id="g5499"
         transform="matrix(7.874016e-5,0,0,-7.874016e-5,102.5,257.5)">
        <path
           d="M 0,76200 C 0,34115.94 34115.94,0 76200,0 c 42084.1,0 76200,34115.94 76200,76200 0,42084.1 -34115.9,76200 -76200,76200 C 34115.94,152400 0,118284.1 0,76200 Z"
           style="fill:none;stroke:#217abb;stroke-width:12700;stroke-linecap:butt;stroke-linejoin:round;stroke-miterlimit:10;stroke-dasharray:none;stroke-opacity:1"
           id="path5501"
           inkscape:connector-curvature="0" />
      </g>
    </g>
    <g
       transform="matrix(1.25,0,0,-1.25,276.5,466.6122)"
       id="g5510">
      <path
         inkscape:connector-curvature="0"
         id="path5512"
         style="fill:#31a7fe;fill-opacity:1;fill-rule:evenodd;stroke:none"
         d="m 102.5,251.5 c 0,3.3137 2.6863,6 6,6 3.3137,0 6,-2.6863 6,-6 0,-3.3137 -2.6863,-6 -6,-6 -3.3137,0 -6,2.6863 -6,6 z" />
      <g
         transform="matrix(7.874016e-5,0,0,-7.874016e-5,102.5,257.5)"
         id="g5514">
        <path
           inkscape:connector-curvature="0"
           id="path5516"
           style="fill:none;stroke:#217abb;stroke-width:12700;stroke-linecap:butt;stroke-linejoin:round;stroke-miterlimit:10;stroke-dasharray:none;stroke-opacity:1"
           d="M 0,76200 C 0,34115.94 34115.94,0 76200,0 c 42084.1,0 76200,34115.94 76200,76200 0,42084.1 -34115.9,76200 -76200,76200 C 34115.94,152400 0,118284.1 0,76200 Z" />
      </g>
    </g>
    <g
       id="g5518"
       transform="matrix(1.25,0,0,-1.25,354.5,466.6122)">
      <path
         d="m 102.5,251.5 c 0,3.3137 2.6863,6 6,6 3.3137,0 6,-2.6863 6,-6 0,-3.3137 -2.6863,-6 -6,-6 -3.3137,0 -6,2.6863 -6,6 z"
         style="fill:#31a7fe;fill-opacity:1;fill-rule:evenodd;stroke:none"
         id="path5520"
         inkscape:connector-curvature="0" />
      <g
         id="g5522"
         transform="matrix(7.874016e-5,0,0,-7.874016e-5,102.5,257.5)">
        <path
           d="M 0,76200 C 0,34115.94 34115.94,0 76200,0 c 42084.1,0 76200,34115.94 76200,76200 0,42084.1 -34115.9,76200 -76200,76200 C 34115.94,152400 0,118284.1 0,76200 Z"
           style="fill:none;stroke:#217abb;stroke-width:12700;stroke-linecap:butt;stroke-linejoin:round;stroke-miterlimit:10;stroke-dasharray:none;stroke-opacity:1"
           id="path5524"
           inkscape:connector-curvature="0" />
      </g>
    </g>
    <g
       transform="matrix(1.25,0,0,-1.25,138.5,516.6122)"
       id="g5526">
      <path
         inkscape:connector-curvature="0"
         id="path5528"
         style="fill:#31a7fe;fill-opacity:1;fill-rule:evenodd;stroke:none"
         d="m 102.5,251.5 c 0,3.3137 2.6863,6 6,6 3.3137,0 6,-2.6863 6,-6 0,-3.3137 -2.6863,-6 -6,-6 -3.3137,0 -6,2.6863 -6,6 z" />
      <g
         transform="matrix(7.874016e-5,0,0,-7.874016e-5,102.5,257.5)"
         id="g5530">
        <path
           inkscape:connector-curvature="0"
           id="path5532"
           style="fill:none;stroke:#217abb;stroke-width:12700;stroke-linecap:butt;stroke-linejoin:round;stroke-miterlimit:10;stroke-dasharray:none;stroke-opacity:1"
           d="M 0,76200 C 0,34115.94 34115.94,0 76200,0 c 42084.1,0 76200,34115.94 76200,76200 0,42084.1 -34115.9,76200 -76200,76200 C 34115.94,152400 0,118284.1 0,76200 Z" />
      </g>
    </g>
    <g
       id="g5536"
       transform="matrix(1.25,0,0,-1.25,214.5,516.6122)"
       inkscape:export-filename="/home/yani/Documents/phd-thesis/Figs/Raster/oldtreenotation.png"
       inkscape:export-xdpi="600"
       inkscape:export-ydpi="600">
      <path
         d="m 102.5,251.5 c 0,3.3137 2.6863,6 6,6 3.3137,0 6,-2.6863 6,-6 0,-3.3137 -2.6863,-6 -6,-6 -3.3137,0 -6,2.6863 -6,6 z"
         style="fill:#31a7fe;fill-opacity:1;fill-rule:evenodd;stroke:none"
         id="path5538"
         inkscape:connector-curvature="0" />
      <g
         id="g5540"
         transform="matrix(7.874016e-5,0,0,-7.874016e-5,102.5,257.5)">
        <path
           d="M 0,76200 C 0,34115.94 34115.94,0 76200,0 c 42084.1,0 76200,34115.94 76200,76200 0,42084.1 -34115.9,76200 -76200,76200 C 34115.94,152400 0,118284.1 0,76200 Z"
           style="fill:none;stroke:#217abb;stroke-width:12700;stroke-linecap:butt;stroke-linejoin:round;stroke-miterlimit:10;stroke-dasharray:none;stroke-opacity:1"
           id="path5542"
           inkscape:connector-curvature="0" />
      </g>
    </g>
  </g>
</svg>
